<svg xmlns="http://www.w3.org/2000/svg" fill="none" viewBox="0 0 480 360" height="360" width="480">
<rect fill="#6ACDEC" height="360" width="480"></rect>
<path fill-opacity="0.1" fill="black" d="M180 237L240 207L300 237L240 267L180 237Z"></path>
<path fill="#FF8067" d="M234 258V252L228 255L222 252V246L246 234V216L252 219L258 216V234L270 240V246L240 261L234 258Z"></path>
<path fill="#FF8067" d="M204 243V237L198 240L192 237V231L216 219V201L222 204L228 201V219L240 225V231L210 246L204 243Z"></path>
<path fill="#FF956F" d="M192 231L198 234V240L192 237V231Z"></path>
<path fill="#FF956F" d="M204 237L210 240V246L204 243V237Z"></path>
<path fill="#FF956F" d="M222 246L228 249V255L222 252V246Z"></path>
<path fill="#FF956F" d="M234 252L240 255V261L234 258V252Z"></path>
<path fill="#FF956F" d="M210 228L216 231L210 234V228Z"></path>
<path fill="#FF956F" d="M240 243L246 246L240 249V243Z"></path>
<path fill="#FF956F" d="M246 216L252 219V243L246 240V216Z"></path>
<path fill="#FF956F" d="M216 201L222 204V228L216 225V201Z"></path>
<path fill="#EC5957" d="M210 227.999L198 234V240L210 233.999V227.999Z"></path>
<path fill="#EC5957" d="M240 224.999L210 240V246L240 230.999V224.999Z"></path>
<path fill="#EC5957" d="M240 242.999L228 248.999V254.999L240 248.999V242.999Z"></path>
<path fill="#EC5957" d="M270 239.999L240 254.999V260.999L270 245.999V239.999Z"></path>
<path fill="#EC5957" d="M258 215.999L252 218.999V242.999L258 239.999V215.999Z"></path>
<path fill="#EC5957" d="M228 201L222 204V228L228 225V201Z"></path>
<path fill="white" d="M192 213V117L234 96L270 114V150L288 159V207L252 225L246 222L228 231L192 213Z"></path>
<path fill="#F5E4EE" d="M228 135L270 114V174L288 165L282 162L288 159V207L252 225V201L288 183L276 177L240 195V219L246 222L228 231V135Z"></path>
<path fill="#FF5D94" d="M210 120V105L234 93L246 99V114L222 126L210 120Z"></path>
<path fill="#FF5D94" d="M192 174V159L204 153L216 159V174L204 180L192 174Z"></path>
<path fill="#FF6EA5" d="M222 111L210 105V120L222 126V111Z"></path>
<path fill="#FF6EA5" d="M204 165L192 159V174L204 180V165Z"></path>
<path fill="#FF8067" d="M186 162V147L204 138L216 144V159L198 168L186 162Z"></path>
<path fill="#EC5957" d="M216 144L198 153L198 168L216 159L216 144Z"></path>
<path fill="#FF956F" d="M186 147L198.001 153L198.001 168L186 162L186 147Z"></path>
<path fill="#E53C75" d="M222 111L246 99V114L222 126V111Z"></path>
<path fill="#E53C75" d="M204 165L216 159V174L204 180V165Z"></path>
<path fill="#2F0020" d="M240 144L246 141V147L240 150V144Z"></path>
</svg>
